<?xml version="1.0" standalone="no"?>
<svg
  width="600"
  height="600"
  viewBox="0 0 600 600"
  xmlns="http://www.w3.org/2000/svg"
>
  <g transform="translate(300,300)">
    <path d="M117.2,-137.1C146.1,-115.4,159.7,-73,170.4,-27.8C181.1,17.5,188.8,65.5,169.6,97.2C150.4,128.9,104.3,144.3,55.5,169.6C6.6,194.8,-44.9,229.9,-83.3,219.9C-121.7,209.8,-147,154.7,-169.4,103.7C-191.7,52.8,-211.1,6.1,-205.5,-38.1C-199.9,-82.2,-169.4,-123.9,-131,-143.9C-92.6,-164,-46.3,-162.5,-1.1,-161.2C44.1,-159.9,88.3,-158.9,117.2,-137.1Z" fill="#fcb900" />
  </g>
</svg>
  