<?xml version="1.0" standalone="no"?>
<svg
  width="600"
  height="600"
  viewBox="0 0 600 600"
  xmlns="http://www.w3.org/2000/svg"
>
  <g transform="translate(300,300)">
    <path d="M168.7,-192.5C211.3,-165.2,233.7,-105.2,244.5,-43.2C255.3,18.7,254.5,82.6,222.7,119.9C190.8,157.2,127.9,167.9,71.6,182C15.3,196.1,-34.4,213.6,-78,202.8C-121.6,191.9,-159.1,152.7,-173.5,109.2C-187.8,65.7,-179.1,17.8,-174,-34.1C-168.9,-85.9,-167.4,-141.8,-139,-171.6C-110.6,-201.4,-55.3,-205.2,3.9,-209.8C63,-214.4,126,-219.8,168.7,-192.5Z" fill="#00d084" />
  </g>
</svg>
  