<?xml version="1.0" standalone="no"?><svg xmlns="http://www.w3.org/2000/svg" viewBox="0 0 1440 320"><path fill="#a2d9ff" fill-opacity="1" d="M0,224L24,240C48,256,96,288,144,298.7C192,309,240,299,288,266.7C336,235,384,181,432,181.3C480,181,528,235,576,240C624,245,672,203,720,202.7C768,203,816,245,864,234.7C912,224,960,160,1008,144C1056,128,1104,160,1152,176C1200,192,1248,192,1296,176C1344,160,1392,128,1416,112L1440,96L1440,320L1416,320C1392,320,1344,320,1296,320C1248,320,1200,320,1152,320C1104,320,1056,320,1008,320C960,320,912,320,864,320C816,320,768,320,720,320C672,320,624,320,576,320C528,320,480,320,432,320C384,320,336,320,288,320C240,320,192,320,144,320C96,320,48,320,24,320L0,320Z"></path></svg>